<svg width="16" height="16" viewBox="0 0 16 16" fill="none" xmlns="http://www.w3.org/2000/svg">
<g clip-path="url(#clip0_2363_13473)">
<path d="M5.12045 0.959961C2.82684 0.959961 0.960449 2.82636 0.960449 5.11996V10.88C0.960449 13.1736 2.82684 15.04 5.12045 15.04H10.8804C13.1741 15.04 15.0404 13.1736 15.0404 10.88V5.11996C15.0404 2.82636 13.1741 0.959961 10.8804 0.959961H5.12045ZM5.12045 1.59996H10.8804C12.8281 1.59996 14.4004 3.17229 14.4004 5.11996V10.88C14.4004 12.8276 12.8281 14.4 10.8804 14.4H5.12045C3.17277 14.4 1.60045 12.8276 1.60045 10.88V5.11996C1.60045 3.17229 3.17277 1.59996 5.12045 1.59996ZM11.8404 3.51996C11.6707 3.51996 11.5079 3.58739 11.3879 3.70741C11.2679 3.82744 11.2004 3.99022 11.2004 4.15996C11.2004 4.3297 11.2679 4.49249 11.3879 4.61251C11.5079 4.73253 11.6707 4.79996 11.8404 4.79996C12.0102 4.79996 12.173 4.73253 12.293 4.61251C12.413 4.49249 12.4804 4.3297 12.4804 4.15996C12.4804 3.99022 12.413 3.82744 12.293 3.70741C12.173 3.58739 12.0102 3.51996 11.8404 3.51996ZM8.00045 4.47996C6.0602 4.47996 4.48045 6.05971 4.48045 7.99996C4.48045 9.94021 6.0602 11.52 8.00045 11.52C9.9407 11.52 11.5204 9.94021 11.5204 7.99996C11.5204 6.05971 9.9407 4.47996 8.00045 4.47996ZM8.00045 5.11996C9.59482 5.11996 10.8804 6.40559 10.8804 7.99996C10.8804 9.59433 9.59482 10.88 8.00045 10.88C6.40608 10.88 5.12045 9.59433 5.12045 7.99996C5.12045 6.40559 6.40608 5.11996 8.00045 5.11996Z" fill="#EDEDED"/>
</g>
<defs>
<clipPath id="clip0_2363_13473">
<rect width="16" height="16" fill="white"/>
</clipPath>
</defs>
</svg>
