<svg width="16" height="16" viewBox="0 0 16 16" fill="none" xmlns="http://www.w3.org/2000/svg">
<path d="M14.2007 1.91574C14.0448 1.92257 13.8931 1.96595 13.7563 2.02074C13.6209 2.07516 12.8413 2.4079 11.6901 2.90011C10.5388 3.39232 9.04228 4.03329 7.5588 4.66886C4.59185 5.94001 1.6763 7.19074 1.6763 7.19074L1.69755 7.18261C1.69755 7.18261 1.52159 7.24143 1.34318 7.36574C1.25398 7.42789 1.15801 7.50813 1.07943 7.62511C1.00085 7.74209 0.943406 7.90788 0.965054 8.08324C1.04109 8.69915 1.67943 8.87386 1.67943 8.87386L1.68193 8.87511L4.53068 9.85011C4.60331 10.0924 5.39472 12.7338 5.5688 13.2932C5.66495 13.6025 5.75494 13.7809 5.8488 13.9026C5.89578 13.9635 5.945 14.0106 5.99943 14.0451C6.02106 14.0588 6.0438 14.0691 6.0663 14.0782H6.06755C6.07032 14.0795 6.07292 14.0796 6.07568 14.0807L6.06818 14.0789C6.07341 14.081 6.07857 14.0845 6.0838 14.0864C6.09396 14.0899 6.10018 14.0898 6.11318 14.0926C6.43943 14.2065 6.70943 13.9951 6.70943 13.9951L6.72068 13.9864L8.47068 12.3632L11.3107 14.5776L11.3463 14.5939C11.8434 14.8146 12.293 14.6914 12.5419 14.4889C12.7909 14.2863 12.8888 14.0251 12.8888 14.0251L12.8994 13.9976L14.9863 3.12074C15.0397 2.8774 15.0473 2.66706 14.9969 2.47699C14.9466 2.28692 14.8242 2.12169 14.6707 2.03011C14.5171 1.93853 14.3565 1.9089 14.2007 1.91574ZM14.2176 2.56636C14.2809 2.56343 14.3278 2.57067 14.3426 2.57949C14.3573 2.58831 14.364 2.58715 14.3782 2.64074C14.3924 2.69433 14.4001 2.8072 14.3613 2.98386L14.3601 2.98761L12.2851 13.8014C12.2801 13.8122 12.2369 13.9123 12.1382 13.9926C12.0375 14.0746 11.9255 14.1385 11.6282 14.0139L8.52255 11.592L8.43505 11.5232L8.43318 11.5251L7.50443 10.8282L12.7238 4.68761C12.7639 4.64055 12.7895 4.58288 12.7975 4.52157C12.8056 4.46026 12.7957 4.39794 12.769 4.34214C12.7424 4.28634 12.7001 4.23945 12.6474 4.20715C12.5947 4.17485 12.5337 4.15851 12.4719 4.16011C12.4115 4.16168 12.3528 4.18032 12.3026 4.21386L4.75005 9.24886L1.89693 8.27199C1.89693 8.27199 1.61361 8.11433 1.60005 8.00449C1.5993 7.9984 1.59596 8.00391 1.61068 7.98199C1.6254 7.96007 1.66241 7.92306 1.7088 7.89074C1.8016 7.82608 1.90755 7.78699 1.90755 7.78699L1.91818 7.78324L1.9288 7.77886C1.9288 7.77886 4.8445 6.52807 7.8113 5.25699C9.29471 4.62144 10.791 3.98095 11.9419 3.48886C13.0926 2.9969 13.924 2.64279 13.9944 2.61449C14.0746 2.58239 14.1543 2.56929 14.2176 2.56636ZM10.7563 6.01386L6.79818 10.6707L6.7963 10.6726C6.79012 10.6801 6.78429 10.6878 6.7788 10.6957C6.77253 10.7044 6.76669 10.7134 6.7613 10.7226C6.73907 10.7604 6.72481 10.8023 6.71943 10.8457C6.71943 10.8466 6.71943 10.8474 6.71943 10.8482L6.2038 13.167C6.19523 13.1419 6.18923 13.1328 6.18005 13.1032V13.1026C6.01628 12.5764 5.26961 10.0853 5.1663 9.74074L10.7563 6.01386ZM7.24505 11.4339L7.95631 11.9676L6.9113 12.9364L7.24505 11.4339Z" fill="#EDEDED"/>
</svg>
