<svg width="16" height="16" viewBox="0 0 16 16" fill="none" xmlns="http://www.w3.org/2000/svg">
<g clip-path="url(#clip0_2363_13475)">
<path d="M10.9501 1.75C9.03639 1.75 7.48014 3.30625 7.48014 5.22C7.48014 5.335 7.50889 5.4475 7.52014 5.56C5.15389 5.33375 3.06139 4.19375 1.64014 2.45C1.57389 2.36625 1.47139 2.32125 1.36389 2.32875C1.25764 2.33625 1.16264 2.3975 1.11014 2.49C0.811387 3.00375 0.640137 3.595 0.640137 4.23C0.640137 4.99875 0.915137 5.7025 1.34014 6.28C1.25764 6.24375 1.16764 6.22375 1.09014 6.18C0.991387 6.1275 0.872638 6.13 0.776387 6.1875C0.680137 6.245 0.621387 6.34875 0.620137 6.46V6.5C0.620137 7.67875 1.23014 8.7025 2.13014 9.33C2.12014 9.32875 2.11014 9.3325 2.10014 9.33C1.99014 9.31125 1.87889 9.35 1.80514 9.43375C1.73139 9.5175 1.70764 9.63375 1.74014 9.74C2.09764 10.8512 3.01014 11.7 4.14014 12.01C3.24014 12.545 2.19639 12.86 1.07014 12.86C0.826387 12.86 0.592638 12.8475 0.360137 12.82C0.210137 12.8 0.0663874 12.8875 0.0163875 13.03C-0.0348625 13.1725 0.0213875 13.3312 0.150137 13.41C1.59389 14.3362 3.30764 14.88 5.15014 14.88C8.13639 14.88 10.4789 13.6325 12.0501 11.85C13.6214 10.0675 14.4401 7.7525 14.4401 5.59C14.4401 5.49875 14.4326 5.41 14.4301 5.32C15.0164 4.87125 15.5401 4.345 15.9501 3.73C16.0314 3.61125 16.0226 3.4525 15.9289 3.3425C15.8364 3.2325 15.6801 3.19875 15.5501 3.26C15.3851 3.33375 15.1926 3.34125 15.0201 3.4C15.2476 3.09625 15.4426 2.76875 15.5601 2.4C15.6001 2.27375 15.5564 2.135 15.4526 2.0525C15.3489 1.97125 15.2039 1.96125 15.0901 2.03C14.5439 2.35375 13.9389 2.58125 13.3001 2.72C12.6801 2.14 11.8639 1.75 10.9501 1.75ZM10.9501 2.39C11.7664 2.39 12.5039 2.73875 13.0201 3.29C13.0976 3.37 13.2114 3.40375 13.3201 3.38C13.7376 3.2975 14.1339 3.17625 14.5201 3.02C14.2976 3.32 14.0226 3.57625 13.7001 3.77C13.5539 3.84125 13.4851 4.01 13.5389 4.16375C13.5914 4.31625 13.7514 4.405 13.9101 4.37C14.2301 4.33125 14.5151 4.20125 14.8201 4.12C14.5464 4.41625 14.2464 4.68375 13.9201 4.92C13.8314 4.985 13.7826 5.09 13.7901 5.2C13.7951 5.33 13.8001 5.45875 13.8001 5.59C13.8001 7.59 13.0326 9.76125 11.5701 11.42C10.1076 13.0787 7.96014 14.24 5.15014 14.24C3.87389 14.24 2.66889 13.9575 1.58014 13.46C2.93014 13.3562 4.17514 12.8787 5.18014 12.09C5.28514 12.0062 5.32639 11.8663 5.28389 11.7387C5.24139 11.6112 5.12389 11.5238 4.99014 11.52C3.93514 11.5012 3.05139 10.8875 2.58014 10.02C2.59764 10.02 2.61264 10.02 2.63014 10.02C2.94639 10.02 3.25889 9.98 3.55014 9.9C3.69014 9.85875 3.78639 9.72875 3.78139 9.5825C3.77639 9.43625 3.67264 9.31125 3.53014 9.28C2.39139 9.05 1.53764 8.1225 1.34014 6.97C1.66264 7.08125 1.99264 7.16875 2.35014 7.18C2.49639 7.18875 2.62889 7.0975 2.67389 6.95875C2.71889 6.82 2.66389 6.6675 2.54014 6.59C1.78014 6.08125 1.28014 5.215 1.28014 4.23C1.28014 3.865 1.37514 3.53 1.50014 3.21C3.10014 4.96625 5.34014 6.1325 7.87014 6.26C7.97014 6.265 8.06764 6.22375 8.13264 6.1475C8.19764 6.07 8.22264 5.9675 8.20014 5.87C8.15139 5.6625 8.12014 5.4425 8.12014 5.22C8.12014 3.6525 9.38264 2.39 10.9501 2.39Z" fill="white"/>
</g>
<defs>
<clipPath id="clip0_2363_13475">
<rect width="16" height="16" fill="white"/>
</clipPath>
</defs>
</svg>
